<svg width="600" height="200" xmlns="http://www.w3.org/2000/svg" preserveAspectRatio="none">

 <g>
  <title>background</title>
  <rect fill="none" id="canvas_background" height="202" width="602" y="-1" x="-1"/>
 </g>
 <g>
  <title>Layer 1</title>
  <g transform="translate(-96.64816284179688,-392.95343017578125) scale(1) " id="shape_a5Dq2JeucR">
   <svg y="-209.091377" x="-107.545486" id="svg_3" viewBox="0 0 1409.6400404983174 1400" height="1400" width="1409.64004" xmlns:xlink="http://www.w3.org/1999/xlink">
    <rect id="svg_4" y="600" x="200" height="200" width="609.64004" fill="rgba(0,0,0,0)"/>
    <g id="svg_5">
     <path id="svg_6" stroke-width="0.333" stroke="rgb(36, 145, 246)" fill="rgb(36, 145, 246)" d="m305.020016,776l-41.2,0l-37.8,-113.8l35.8,0l13.8,52.4q2,8.2 4.2,16.8l0,0q2.2,9 4.4,18.2l0,0l1,0q3.6,-16.2 7.6,-31.6l0,0q0.4,-1.8 0.8,-3.4l0,0l14,-52.4l34.2,0l-36.8,113.8z"/>
     <path id="svg_7" stroke-width="0.333" stroke="rgb(246, 52, 52)" fill="rgb(246, 52, 52)" d="m394.420018,776l-35.4,0l0,-113.8l35.4,0l0,113.8zm-17.6,-129.6l0,0q-9,0 -14.7,-5.1q-5.7,-5.1 -5.7,-13.1l0,0q0,-8.2 5.7,-13.3q5.7,-5.1 14.7,-5.1l0,0q8.8,0 14.5,5.1q5.7,5.1 5.7,13.3l0,0q0,8 -5.7,13.1q-5.7,5.1 -14.5,5.1z"/>
     <path id="svg_8" stroke-width="0.333" stroke="rgb(246, 149, 52)" fill="rgb(246, 149, 52)" d="m458.620023,776l-35.4,0l0,-113.8l29,0l2.4,19.8l0.8,0q6.4,-11.4 15.1,-17q8.7,-5.6 17.3,-5.6l0,0q10.2,0 13.8,2.4l0,0l-6,30.6q-4.8,-1.8 -12.4,-1.8l0,0q-6.2,0 -13.1,4.6q-6.9,4.6 -11.5,15.8l0,0l0,65z"/>
     <path id="svg_9" stroke-width="0.333" stroke="rgb(36, 145, 246)" fill="rgb(36, 145, 246)" d="m576.82001,778.8l0,0q-15,0 -29.4,-15l0,0l-0.8,0l-2.8,12.2l-27.8,0l0,-159.8l35.4,0l0,38.4l-0.8,17q13.8,-12.2 29.4,-12.2l0,0q20.4,0 32.5,15.7q12.1,15.7 12.1,41.9l0,0q0,19.6 -6.9,33.5q-6.9,13.9 -17.8,21.1q-10.9,7.2 -23.1,7.2zm-8.4,-29.2l0,0q8.2,0 13.9,-7.4q5.7,-7.4 5.7,-24.4l0,0q0,-30 -18.4,-29.4l0,0q-9.8,0 -18.2,9.6l0,0l0,45q4.2,3.6 8.6,5.1q4.4,1.5 8.4,1.5z"/>
     <path id="svg_10" stroke-width="0.333" stroke="rgb(7, 162, 128)" fill="rgb(7, 162, 128)" d="m683.020016,776l-35.4,0l0,-113.8l35.4,0l0,113.8zm-17.6,-129.6l0,0q-9,0 -14.7,-5.1q-5.7,-5.1 -5.7,-13.1l0,0q0,-8.2 5.7,-13.3q5.7,-5.1 14.7,-5.1l0,0q8.8,0 14.5,5.1q5.7,5.1 5.7,13.3l0,0q0,8 -5.7,13.1q-5.7,5.1 -14.5,5.1z"/>
     <path id="svg_11" stroke-width="0.333" stroke="rgb(246, 52, 52)" fill="rgb(246, 52, 52)" d="m756.620029,778.8l0,0q-21.4,0 -30.8,-12.4q-9.4,-12.4 -9.4,-32.6l0,0l0,-43.8l-15.4,0l0,-26.4l17.4,-1.4l4,-30l29.6,0l0,30l26.8,0l0,27.8l-26.8,0l0,43.4q0,9.4 4.1,13.5q4.1,4.1 10.3,4.1l0,0q5.2,0 10,-1.8l0,0q0.2,-0.2 0.4,-0.2l0,0l5.6,25.6q-4.4,1.4 -10.7,2.8q-6.3,1.4 -15.1,1.4z"/>
    </g>
   </svg>
  </g>
 </g>
</svg>